<svg width="25" height="25" viewBox="0 0 25 25" fill="none" xmlns="http://www.w3.org/2000/svg">
<g clip-path="url(#clip0_310_10)">
<path d="M21.8745 3.16461C19.0779 0.154432 16.472 0.0292909 15.9741 0.0136719L15.6563 0.466052C19.2262 1.96348 20.953 4.30328 20.953 4.30328C17.8887 2.08341 15.0011 1.30275 12.4994 1.2558C9.99781 1.30313 7.11011 2.08341 4.04592 4.30328C4.04592 4.30328 5.77264 1.96348 9.34264 0.466052L9.02478 0.0136719C8.52692 0.0292909 5.92093 0.154053 3.12431 3.16461C3.12431 3.16461 -0.000732422 11.0263 -0.000732422 20.6818C0.10516 20.4947 1.93783 24.8309 6.6625 24.987C6.6625 24.987 7.45702 23.6612 8.02902 22.4912C5.27472 21.3214 4.23663 18.9816 4.23663 18.9816C7.10002 21.6374 9.77454 22.6593 12.4994 22.5266C15.2243 22.6591 17.8988 21.6374 20.7622 18.9816C20.7622 18.9816 19.7241 21.3214 16.9695 22.4912C17.5416 23.6612 18.3361 24.987 18.3361 24.987C23.0606 24.8309 24.8934 20.4947 24.9993 20.6818C24.9995 11.0263 21.8745 3.16461 21.8745 3.16461ZM8.65377 17.6557C7.4461 17.6557 6.47154 16.1582 6.47154 14.3176C6.47154 12.4769 7.4461 10.9795 8.65377 10.9795V10.9951C9.85084 10.9951 10.836 12.4926 10.836 14.3332C10.8363 16.1582 9.86157 17.6557 8.65402 17.6557H8.65377ZM16.3445 17.6557C15.1369 17.6557 14.1623 16.1582 14.1623 14.3332C14.1623 12.4926 15.1474 10.9951 16.3445 10.9951V10.9795C17.5522 10.9795 18.5268 12.477 18.5268 14.3176C18.5268 16.1581 17.5524 17.6557 16.3448 17.6557H16.3445Z" fill="white"/>
</g>
<defs>
<clipPath id="clip0_310_10">
<rect width="25" height="25" fill="white"/>
</clipPath>
</defs>
</svg>
