<svg width="441" height="351" viewBox="0 0 441 351" fill="none" xmlns="http://www.w3.org/2000/svg">
<path d="M351.622 206.17C351.567 234.497 340.917 261.777 321.767 282.65C302.616 303.522 276.351 316.475 248.134 318.964C219.918 321.453 191.791 313.296 169.283 296.098C146.775 278.899 131.515 253.904 126.503 226.024C121.49 198.145 127.088 169.399 142.195 145.438C157.302 121.477 180.827 104.033 208.143 96.5371C235.459 89.041 264.592 92.0345 289.813 104.929C315.034 117.823 334.52 139.686 344.439 166.219C344.686 166.885 344.928 167.551 345.162 168.224V168.23C346.209 171.187 347.132 174.199 347.929 177.266C350.389 186.704 351.63 196.418 351.622 206.17V206.17Z" fill="#3F3D56"/>
<path d="M224.906 129.108C219.773 126.332 214.074 124.765 208.243 124.527C202.413 124.288 196.605 125.384 191.262 127.731C186.558 129.779 181.605 133.451 180.036 140.083C186.382 136.337 194.598 142.255 196.231 151.749L195.85 151.854C194.987 158.43 196.913 165.589 200.641 169.666C200.918 167.827 201.602 166.072 202.642 164.529C203.682 162.986 205.053 161.695 206.654 160.748C209.393 158.947 212.424 157.639 214.514 154.544C216.993 150.875 217.622 145.513 218.607 140.621C219.591 135.729 221.459 130.471 224.906 129.108Z" fill="#AC7FED"/>
<path d="M189.38 185.065C187.622 187.705 185.274 189.361 183.167 191.423C180.735 193.636 179.14 196.618 178.649 199.869C178.383 202.166 178.795 204.501 178.738 206.824C178.681 209.146 177.907 211.761 176.327 212.338C173.833 213.239 171.929 208.607 169.366 208.283C167.329 208.03 165.495 211.234 166.085 214.013C166.675 216.793 169.448 218.024 171.041 216.209C172.481 218.627 171.466 223.012 169.302 223.754C169.074 225.277 168.845 226.793 168.623 228.316C163.153 224.49 157.626 220.6 152.975 214.997C147.802 208.818 144.594 201.234 143.761 193.219C143.159 186.778 144.053 179.411 141.096 174.455C138.729 170.489 134.668 169.614 131.013 169.861C130.347 169.906 129.674 169.982 129.008 170.064C131.164 163.59 133.901 157.325 137.187 151.345C137.931 151.026 138.622 150.596 139.237 150.069C142.638 147.182 144.149 141.338 146.909 137.296C147.086 137.036 147.27 136.782 147.461 136.534C150.285 132.848 154.066 130.95 157.721 129.186C165.812 125.258 174.137 121.28 182.679 121.825L180.248 122.06C177.412 130.005 174.573 137.949 171.732 145.894C171.301 147.112 170.865 148.333 170.425 149.555C168.813 154.073 167.151 158.883 167.398 163.941C167.544 166.936 168.585 170.134 170.565 171.162C172.411 172.114 174.429 170.946 176.212 169.791C176.968 169.309 177.716 168.827 178.471 168.338C181.181 166.593 184.182 164.804 187.044 165.971C189.665 167.037 191.6 170.597 191.968 174.436C192.306 178.168 191.395 181.906 189.38 185.065Z" fill="#AC7FED"/>
<path d="M205.494 239.305C197.581 234.433 189.667 229.56 181.754 224.688L181.888 224.342C176.968 226.216 174.925 234.962 175.738 242.114C176.551 249.267 179.309 255.66 180.701 262.629C182.58 272.166 181.871 282.032 178.648 291.203C189.054 279.527 198.263 266.837 206.137 253.324C207.237 251.621 208.076 249.762 208.624 247.811C209.205 245.73 208.998 243.509 208.043 241.572C207.395 240.616 206.519 239.837 205.494 239.305V239.305Z" fill="#AC7FED"/>
<path d="M174.263 150.661C173.333 152.656 173.19 154.928 173.862 157.025C174.642 158.713 176.059 160.025 177.803 160.675L182.175 162.842C183.63 163.563 185.198 164.291 186.681 163.698C188.469 162.983 189.709 160.178 189.389 157.575C189.047 154.805 187.301 152.9 185.686 151.277C183.426 149.006 181.166 146.736 178.906 144.465L177.633 146.025C176.255 147.368 175.116 148.936 174.263 150.661V150.661Z" fill="#AC7FED"/>
<path d="M328.182 180.274C330.149 180.738 332.116 181.201 334.083 181.664C333.74 188.308 330.447 194.457 326.031 196.684C324.19 197.61 322.141 197.953 320.618 199.685C319.241 201.259 318.543 203.708 317.902 206.05C316.779 210.136 315.656 214.223 314.532 218.309C313.327 222.713 311.779 227.606 308.644 229.192C305.953 230.556 302.876 228.887 300.807 226.089C298.739 223.291 297.476 219.528 296.251 215.86C296.327 219.858 294.468 223.779 291.835 225.169C289.195 226.559 285.984 225.302 284.22 222.199C282.951 219.972 282.424 217.034 281.18 214.775C279.937 212.516 277.329 211.222 275.971 213.341C275.076 214.75 275.19 216.907 274.746 218.697C274.522 219.885 273.934 220.973 273.063 221.812C272.192 222.65 271.081 223.196 269.885 223.373C268.786 223.348 267.703 223.099 266.703 222.642C265.702 222.185 264.805 221.529 264.066 220.714C260.181 216.74 257.651 211.638 256.839 206.139C256.288 203.502 256.358 200.774 257.042 198.169C257.822 195.701 259.707 193.797 261.579 194.266C262.81 191.665 260.38 188.213 258.19 188.517C255.995 188.822 254.275 191.176 252.473 192.985C250.677 194.793 248.165 196.107 246.356 194.311C246.396 194.968 246.174 195.614 245.738 196.107C245.303 196.6 244.689 196.899 244.032 196.94C243.967 196.944 243.902 196.945 243.837 196.944C242.634 196.599 241.517 196.007 240.556 195.205C236.413 192.623 231.152 194.336 228.208 199.222C230.048 191.392 232.745 182.406 238.399 180.566C240.709 179.811 243.228 180.433 245.411 179.126C249.275 176.81 250.056 168.059 246.718 164.449C247.143 167.862 247.06 171.847 245.258 174.183C243.456 176.518 239.674 174.995 239.903 171.543C239.851 172.028 239.648 172.485 239.321 172.848C238.994 173.211 238.561 173.461 238.083 173.562C237.606 173.663 237.108 173.611 236.662 173.413C236.216 173.214 235.845 172.879 235.6 172.457C234.401 170.629 234.503 167.64 235.353 165.458C236.23 163.481 237.487 161.695 239.052 160.203C242.067 156.974 245.125 153.706 248.615 151.675C252.112 149.644 256.147 148.959 259.65 150.977C261.497 152.043 263.121 153.82 265.006 154.759C265.449 155.034 265.941 155.219 266.456 155.303C266.97 155.387 267.496 155.37 268.003 155.251C268.511 155.132 268.99 154.914 269.413 154.61C269.836 154.306 270.196 153.922 270.471 153.479L270.471 153.479C270.492 153.445 270.513 153.41 270.533 153.376C271.935 150.913 271.275 147.258 271.795 144.181C272.728 138.743 278.166 136.198 281.18 139.79C278.928 139.212 276.599 141.877 276.32 145.107C276.034 148.337 277.665 151.599 279.848 152.576C283.516 154.201 287.107 150.114 289.88 146.332C292.774 142.372 295.672 138.415 298.574 134.46C299.037 133.786 299.557 133.154 300.128 132.569C301.037 131.683 302.249 131.175 303.518 131.149C304.787 131.124 306.018 131.581 306.962 132.429C309.894 134.821 311.271 139.726 313.676 143.102C317.166 148.007 322.388 149.2 327.249 150.152C330.872 150.857 334.498 151.565 338.125 152.278C340.544 156.776 342.653 161.434 344.439 166.219C337.787 169.252 332.145 174.13 328.182 180.274V180.274Z" fill="#AC7FED"/>
<path d="M339.896 256.624C337.177 262.144 334.015 267.435 330.441 272.444C328.156 271.466 325.701 273.211 323.562 274.849C321.329 276.562 318.644 278.231 316.354 276.67C314.012 275.071 313.257 270.597 314 267.05C314.853 263.778 316.345 260.707 318.391 258.014C320.294 255.171 322.331 252.22 324.977 251.116C327.63 250.012 331.037 251.573 331.812 255.342L333.69 255.279C332.636 253.832 333.189 250.837 334.604 250.31C336.234 249.695 337.65 251.935 338.614 253.915C339.045 254.809 339.483 255.71 339.896 256.624Z" fill="#AC7FED"/>
<path d="M267.959 229.821C263.922 230.075 260.724 225.105 258.599 220.215C256.474 215.326 254.535 209.734 250.892 207.246C248.811 205.824 246.437 205.629 244.18 204.939C242.899 204.616 241.714 203.992 240.723 203.119C239.732 202.246 238.963 201.15 238.48 199.921L235.919 198.886C232.336 200.677 229.056 203.016 226.195 205.819C222.927 209.291 220.891 213.742 220.401 218.486C219.912 223.612 221.719 229.328 225.094 231.254C227.761 232.775 230.867 231.816 233.568 233.209C236.944 234.949 238.948 240.005 239.706 244.997C240.465 249.988 240.273 255.176 240.815 260.224C241.358 265.273 242.854 270.526 245.95 273.113C249.823 276.35 255.507 273.66 257.245 267.767C258.098 264.876 258.069 261.614 258.706 258.613C259.829 253.329 262.859 249.408 265.262 245.074C267.665 240.739 269.557 234.852 267.959 229.821Z" fill="#AC7FED"/>
<path d="M228.065 177.894C228.442 178.241 228.793 178.614 229.117 179.01C229.451 179.588 229.622 180.245 229.611 180.913C229.6 181.58 229.406 182.231 229.052 182.797C229.538 182.769 230.014 182.641 230.448 182.42C230.882 182.2 231.266 181.891 231.575 181.515C232.312 180.676 232.96 179.762 233.509 178.79C233.767 178.457 233.952 178.073 234.05 177.663C234.148 177.253 234.158 176.827 234.079 176.413C233.889 175.869 233.438 175.637 233.121 175.227C232.683 174.427 232.384 173.558 232.237 172.658C232.061 171.814 231.654 171.035 231.061 170.41C230.467 169.784 229.711 169.337 228.878 169.118L229.08 169.156C228.736 169.361 228.464 169.668 228.303 170.034C228.141 170.401 228.099 170.809 228.181 171.201C228.304 171.993 228.812 172.65 228.762 173.458C228.689 174.619 227.528 175.164 227.457 176.325C227.445 176.908 227.664 177.472 228.065 177.894V177.894Z" fill="#AC7FED"/>
<path d="M221.148 158.16L221.166 158.156C221.29 158.043 221.405 157.92 221.51 157.789L221.148 158.16Z" fill="#AC7FED"/>
<path d="M222.359 163.611C222.844 163.185 223.202 162.635 223.396 162.019C223.589 161.404 223.609 160.747 223.455 160.12C223.162 158.8 222.123 157.912 221.166 158.156C220.888 158.438 220.543 158.644 220.164 158.756C219.785 158.867 219.383 158.881 218.997 158.795C218.405 158.642 217.755 158.25 217.242 158.696C216.948 159.029 216.742 159.43 216.644 159.863C216.454 160.447 216.264 161.03 216.074 161.613C215.984 161.822 215.96 162.054 216.006 162.276C216.043 162.365 216.101 162.444 216.177 162.504C216.252 162.564 216.342 162.603 216.437 162.619L219.858 163.627C220.25 163.808 220.678 163.9 221.11 163.897C221.542 163.895 221.969 163.797 222.359 163.611V163.611Z" fill="#AC7FED"/>
<path d="M308.431 238.868C307.904 238.005 307.377 237.142 306.85 236.279C306.332 235.28 305.624 234.392 304.766 233.663C304.391 233.349 303.906 233.197 303.418 233.24C302.931 233.283 302.48 233.518 302.166 233.893L302.165 233.893L302.138 233.927L302.202 234.419C303.613 235.932 304.575 237.809 304.979 239.838C305.099 240.72 305.057 241.632 305.163 242.518C305.174 242.929 305.266 243.333 305.433 243.708C305.601 244.083 305.841 244.422 306.139 244.704C306.969 245.258 307.944 244.441 308.534 243.443C309.062 242.624 309.299 241.651 309.207 240.681C309.075 240.03 308.811 239.413 308.431 238.868V238.868Z" fill="#AC7FED"/>
<path d="M316.698 239.991C316.799 239.183 316.733 238.364 316.505 237.582C316.468 236.525 316.748 235.48 317.31 234.584C317.868 233.738 318.291 232.811 318.564 231.835C318.679 231.39 318.658 230.921 318.504 230.489C318.329 230.097 317.907 229.918 317.665 230.228L318.183 230.562C317.483 230.437 316.763 230.472 316.078 230.664C315.687 230.814 315.339 231.055 315.061 231.368C314.783 231.681 314.585 232.057 314.483 232.463C314.397 233.095 314.257 233.72 314.065 234.328C313.755 234.964 313.156 235.176 312.78 235.734C312.523 236.229 312.394 236.78 312.403 237.337C312.412 237.895 312.56 238.441 312.833 238.927C313.305 239.722 314.057 240.313 314.941 240.585C315.574 240.812 316.408 240.824 316.698 239.991Z" fill="#AC7FED"/>
<path d="M331.421 244.433C331.65 245.029 331.957 245.592 332.334 246.108C333.039 246.818 333.996 246.381 334.852 246.209C335.628 246.086 336.422 246.176 337.151 246.468C337.88 246.761 338.517 247.245 338.993 247.87C338.661 246.216 337.938 244.666 336.883 243.35C335.828 242.033 334.472 240.99 332.93 240.306C330.927 239.612 328.815 239.282 326.695 239.331L326.333 239.424C327.256 242.11 330.153 242.049 331.421 244.433Z" fill="#AC7FED"/>
<path d="M269.063 249.927L269.069 249.939L269.174 249.736L269.063 249.927Z" fill="#AC7FED"/>
<path d="M266.83 254.25C266.343 255.134 265.924 256.055 265.577 257.003C265.117 258.538 264.813 260.116 264.669 261.713C264.555 262.62 264.52 263.78 265.089 264.222C265.252 264.33 265.449 264.376 265.644 264.349C265.838 264.323 266.016 264.227 266.144 264.079C266.46 263.744 266.719 263.36 266.909 262.942C268.027 261.017 268.895 258.957 269.492 256.812C270.115 254.537 269.966 252.12 269.069 249.938C268.323 251.376 267.576 252.813 266.83 254.25Z" fill="#AC7FED"/>
<path d="M245.283 139.068C245.637 139.415 246.086 139.651 246.573 139.746C247.06 139.841 247.564 139.791 248.023 139.603C248.974 139.188 249.846 138.612 250.602 137.9C251.227 137.437 251.758 136.858 252.165 136.195C252.389 135.798 252.533 135.362 252.587 134.91C252.642 134.457 252.607 133.999 252.485 133.56C252.31 133.14 252.031 132.772 251.674 132.489C251.317 132.207 250.894 132.02 250.445 131.947C249.179 131.572 247.914 131.196 246.648 130.821L247.564 129.996C246.622 129.491 245.58 130.429 244.991 131.59C244.614 132.349 244.351 133.159 244.21 133.994C244.01 134.867 244.002 135.773 244.188 136.649C244.373 137.526 244.746 138.351 245.283 139.068V139.068Z" fill="#AC7FED"/>
<path d="M267.625 131.568C267.982 131.961 268.475 132.204 269.004 132.247C269.533 132.29 270.059 132.13 270.474 131.8C270.832 131.531 271.129 131.19 271.346 130.799C271.563 130.408 271.696 129.976 271.734 129.53C271.824 128.534 271.332 127.428 270.629 127.342L270.79 126.41C269.436 126.166 267.769 126.117 267.044 127.761C266.799 128.391 266.724 129.074 266.826 129.742C266.928 130.41 267.203 131.04 267.625 131.568V131.568Z" fill="#AC7FED"/>
<path d="M329.934 338.877C333.967 337.803 336.63 334.658 335.883 331.852C335.136 329.047 331.261 327.643 327.228 328.717C323.195 329.791 320.532 332.936 321.279 335.742C322.026 338.547 325.901 339.951 329.934 338.877Z" fill="#E6E6E6"/>
<path d="M280.54 339.79C284.572 338.716 287.236 335.571 286.489 332.766C285.742 329.96 281.867 328.556 277.834 329.63C273.801 330.705 271.137 333.849 271.885 336.655C272.632 339.46 276.507 340.864 280.54 339.79Z" fill="#E6E6E6"/>
<path d="M338.709 297.78C342.742 296.706 345.406 293.561 344.659 290.755C343.911 287.95 340.036 286.546 336.004 287.62C331.971 288.694 329.307 291.839 330.054 294.645C330.801 297.45 334.676 298.854 338.709 297.78Z" fill="#E6E6E6"/>
<path d="M353.278 280.31C355.099 280.084 356.312 277.779 355.988 275.162C355.663 272.544 353.924 270.605 352.103 270.831C350.282 271.057 349.069 273.362 349.394 275.979C349.718 278.597 351.457 280.536 353.278 280.31Z" fill="#E6E6E6"/>
<path d="M356.966 249.305C358.787 249.079 360 246.774 359.676 244.156C359.351 241.539 357.612 239.6 355.791 239.826C353.97 240.051 352.757 242.356 353.082 244.974C353.406 247.591 355.145 249.53 356.966 249.305Z" fill="#E6E6E6"/>
<path d="M307.174 308.909C308.995 308.683 310.208 306.378 309.884 303.76C309.559 301.143 307.82 299.204 305.999 299.43C304.178 299.655 302.965 301.96 303.29 304.578C303.614 307.195 305.353 309.134 307.174 308.909Z" fill="#E6E6E6"/>
<path d="M332.147 317.948C333.968 317.722 335.181 315.417 334.857 312.799C334.532 310.182 332.793 308.243 330.972 308.469C329.151 308.694 327.938 310.999 328.263 313.617C328.587 316.235 330.326 318.173 332.147 317.948Z" fill="#E6E6E6"/>
<path d="M301.825 343.55C303.646 343.324 304.859 341.019 304.535 338.402C304.21 335.784 302.471 333.845 300.65 334.071C298.829 334.297 297.616 336.602 297.94 339.219C298.265 341.837 300.004 343.776 301.825 343.55Z" fill="#E6E6E6"/>
<path d="M84.4045 297.395C88.4374 296.321 91.1009 293.177 90.3538 290.371C89.6067 287.566 85.7317 286.162 81.6989 287.236C77.666 288.31 75.0024 291.455 75.7496 294.26C76.4967 297.066 80.3716 298.47 84.4045 297.395Z" fill="#E6E6E6"/>
<path d="M35.0078 298.311C39.0406 297.237 41.7043 294.092 40.9571 291.286C40.21 288.481 36.335 287.077 32.3021 288.151C28.2693 289.225 25.6057 292.37 26.3528 295.175C27.1 297.981 30.9749 299.385 35.0078 298.311Z" fill="#E6E6E6"/>
<path d="M93.1814 256.297C97.2143 255.223 99.8779 252.078 99.1307 249.272C98.3836 246.467 94.5086 245.063 90.4757 246.137C86.4428 247.211 83.7793 250.356 84.5264 253.162C85.2736 255.967 89.1485 257.371 93.1814 256.297Z" fill="#E6E6E6"/>
<path d="M107.749 238.829C109.57 238.603 110.783 236.298 110.458 233.68C110.134 231.063 108.394 229.124 106.573 229.35C104.752 229.575 103.539 231.88 103.864 234.498C104.189 237.115 105.928 239.054 107.749 238.829Z" fill="#E6E6E6"/>
<path d="M111.437 207.823C113.258 207.597 114.471 205.292 114.146 202.675C113.822 200.057 112.083 198.118 110.262 198.344C108.441 198.57 107.228 200.875 107.552 203.492C107.877 206.11 109.616 208.049 111.437 207.823Z" fill="#E6E6E6"/>
<path d="M61.6447 267.427C63.4656 267.201 64.6787 264.896 64.3542 262.278C64.0296 259.661 62.2904 257.722 60.4694 257.948C58.6485 258.173 57.4355 260.478 57.76 263.096C58.0845 265.714 59.8238 267.652 61.6447 267.427Z" fill="#E6E6E6"/>
<path d="M86.6181 276.466C88.439 276.24 89.652 273.935 89.3275 271.318C89.0029 268.7 87.2637 266.761 85.4428 266.987C83.6219 267.213 82.4088 269.518 82.7334 272.135C83.0579 274.753 84.7972 276.692 86.6181 276.466Z" fill="#E6E6E6"/>
<path d="M56.2958 302.068C58.1167 301.843 59.3298 299.538 59.0052 296.92C58.6807 294.302 56.9414 292.364 55.1205 292.589C53.2996 292.815 52.0866 295.12 52.4111 297.738C52.7356 300.355 54.4748 302.294 56.2958 302.068Z" fill="#E6E6E6"/>
<path d="M384.51 107.46C388.543 106.386 391.207 103.241 390.46 100.435C389.712 97.63 385.837 96.2264 381.805 97.3004C377.772 98.3745 375.108 101.519 375.855 104.325C376.602 107.13 380.477 108.534 384.51 107.46Z" fill="#E6E6E6"/>
<path d="M335.114 108.375C339.146 107.301 341.81 104.156 341.063 101.351C340.316 98.545 336.441 97.1414 332.408 98.2155C328.375 99.2895 325.711 102.434 326.459 105.24C327.206 108.045 331.081 109.449 335.114 108.375Z" fill="#E6E6E6"/>
<path d="M393.287 66.3603C397.32 65.2863 399.983 62.1413 399.236 59.3358C398.489 56.5304 394.614 55.1268 390.581 56.2008C386.548 57.2748 383.885 60.4198 384.632 63.2253C385.379 66.0307 389.254 67.4343 393.287 66.3603Z" fill="#E6E6E6"/>
<path d="M407.854 48.893C409.675 48.6673 410.888 46.3623 410.564 43.7447C410.239 41.1272 408.5 39.1882 406.679 39.414C404.858 39.6397 403.645 41.9447 403.97 44.5623C404.294 47.1798 406.033 49.1188 407.854 48.893Z" fill="#E6E6E6"/>
<path d="M411.543 17.8876C413.364 17.6619 414.577 15.3569 414.252 12.7393C413.928 10.1218 412.188 8.18283 410.367 8.4086C408.546 8.63436 407.333 10.9393 407.658 13.5569C407.982 16.1745 409.722 18.1134 411.543 17.8876Z" fill="#E6E6E6"/>
<path d="M361.75 77.4912C363.571 77.2654 364.784 74.9604 364.46 72.3429C364.135 69.7253 362.396 67.7864 360.575 68.0121C358.754 68.2379 357.541 70.5429 357.866 73.1604C358.19 75.778 359.929 77.7169 361.75 77.4912Z" fill="#E6E6E6"/>
<path d="M386.724 86.5307C388.545 86.3049 389.758 84 389.433 81.3824C389.109 78.7648 387.369 76.8259 385.548 77.0517C383.728 77.2774 382.515 79.5824 382.839 82.2C383.164 84.8175 384.903 86.7565 386.724 86.5307Z" fill="#E6E6E6"/>
<path d="M356.401 112.133C358.222 111.907 359.435 109.602 359.111 106.985C358.786 104.367 357.047 102.428 355.226 102.654C353.405 102.88 352.192 105.185 352.517 107.802C352.841 110.42 354.58 112.359 356.401 112.133Z" fill="#E6E6E6"/>
<path d="M69.5626 304.422C61.481 304.422 56.2269 302.414 53.9015 298.422C49.3157 290.55 56.996 276.737 76.7287 257.367L78.3864 259.055C60.0567 277.049 52.0871 290.606 55.9458 297.231C58.3875 301.421 65.6542 302.923 76.9648 301.572C88.193 300.232 103.073 296.237 121.192 289.698C158.493 276.236 205.291 253.528 252.965 225.758C300.637 197.988 343.475 168.482 373.586 142.675C379.37 137.717 384.619 132.947 389.187 128.5C395.184 122.804 400.717 116.638 405.732 110.061C412.486 100.89 414.766 93.8273 412.324 89.6363C408.246 82.6365 391.116 83.2947 364.087 91.4923L363.401 89.2277C392.4 80.434 409.549 80.1702 414.369 88.4455C417.364 93.5871 415.099 101.332 407.638 111.464C402.546 118.145 396.928 124.409 390.838 130.195C386.234 134.678 380.948 139.481 375.126 144.471C344.909 170.369 301.948 199.963 254.156 227.802C206.362 255.643 159.426 278.415 121.995 291.924C103.708 298.524 88.6517 302.561 77.2452 303.922C74.6964 304.24 72.1311 304.407 69.5626 304.422V304.422Z" fill="#3F3D56"/>
</svg>
