<svg width="460" height="269" viewBox="0 0 460 269" fill="none" xmlns="http://www.w3.org/2000/svg">
<path d="M110.701 264.432L99.3698 244.156L110.706 266.641L110.712 268.952C111.521 268.941 112.321 268.906 113.113 268.847L112.189 239.167L112.201 238.937L112.18 238.894L112.092 236.089L123.94 213.866L112.08 233.989L112.045 234.583L111.346 212.158L121.532 189.165L111.267 208.218L110.789 161.738L110.787 161.583L110.785 161.736L110.553 198.382L100.82 183.719L110.562 201.538L110.607 221.61L101.576 202.225L110.612 224.56L110.637 235.721L97.519 208.73L110.647 239.615L110.701 264.432Z" fill="#E2E2E2"/>
<path d="M207.939 264.432L196.608 244.156L207.944 266.641L207.951 268.952C208.759 268.941 209.559 268.906 210.351 268.847L209.427 239.167L209.439 238.937L209.418 238.894L209.33 236.089L221.178 213.866L209.318 233.989L209.283 234.583L208.584 212.158L218.77 189.165L208.505 208.218L208.027 161.738L208.025 161.583L208.024 161.736L207.791 198.382L198.058 183.719L207.8 201.538L207.845 221.61L198.814 202.225L207.85 224.56L207.875 235.721L194.757 208.73L207.885 239.615L207.939 264.432Z" fill="#E2E2E2"/>
<path d="M13.3708 265.736L5.18848 251.095L13.3746 267.332L13.379 269C13.9627 268.992 14.5406 268.967 15.1125 268.924L14.4451 247.492L14.4539 247.327L14.4389 247.295L14.3753 245.27L22.9307 229.222L14.3665 243.753L14.3409 244.182L13.8367 227.99L21.1916 211.386L13.7793 225.144L13.4345 191.581L13.4329 191.47L13.4317 191.58L13.2638 218.042L6.23588 207.454L13.27 220.321L13.3027 234.814L6.78176 220.816L13.3063 236.945L13.3243 245.004L3.85205 225.514L13.3318 247.816L13.3708 265.736Z" fill="#E2E2E2"/>
<path d="M444.431 264.432L433.1 244.156L444.436 266.641L444.442 268.952C445.251 268.941 446.051 268.906 446.843 268.847L445.919 239.167L445.931 238.937L445.91 238.894L445.822 236.089L457.67 213.866L445.81 233.989L445.774 234.583L445.076 212.158L455.262 189.165L444.997 208.218L444.519 161.738L444.517 161.583L444.515 161.736L444.283 198.382L434.55 183.719L444.291 201.538L444.337 221.61L435.306 202.225L444.342 224.56L444.367 235.721L431.249 208.73L444.377 239.615L444.431 264.432Z" fill="#E2E2E2"/>
<path d="M137.127 233.819H198.253V230.898H137.127V233.819Z" fill="#AC7FED"/>
<path d="M134.018 230.898H195.145V227.977H134.018V230.898Z" fill="#AC7FED"/>
<path d="M137.645 227.978H198.771V225.057H137.645V227.978Z" fill="#AC7FED"/>
<path d="M143.861 225.057H204.987V222.136H143.861V225.057Z" fill="#AC7FED"/>
<path d="M91.8513 226.221H93.9736V209.23H91.8513V226.221Z" fill="#3F3D56"/>
<path d="M91.8468 209.015L92.645 211.232L171.181 175.288L170.383 173.071L91.8468 209.015Z" fill="#3F3D56"/>
<path d="M52.5887 251.588H71.0527V243.451H52.5887V251.588Z" fill="#3F3D56"/>
<path d="M54.2866 259.725H145.333V250.631H54.2866V259.725Z" fill="#3F3D56"/>
<path d="M69.2485 255.178H91.1084V224.187H74.7665L69.2485 239.817V255.178Z" fill="#E2E2E2"/>
<path d="M78.3747 236.631H87.7129V226.102H78.3747V236.631Z" fill="white"/>
<path d="M71.3708 236.75H77.3136V226.221H74.7665L71.3708 236.75Z" fill="white"/>
<path d="M85.166 247.161H87.2883V242.614H85.166V247.161Z" fill="#3F3D56"/>
<path d="M75.5095 237.469H75.4034C74.8687 237.469 74.3559 237.229 73.9777 236.803C73.5996 236.376 73.3872 235.798 73.3872 235.195C73.3872 234.592 73.5996 234.014 73.9777 233.588C74.3559 233.161 74.8687 232.922 75.4034 232.922H75.5095V237.469V237.469Z" fill="#3F3D56"/>
<path d="M154.459 255.178H154.353C153.818 255.178 153.306 254.938 152.927 254.512C152.549 254.085 152.337 253.507 152.337 252.904V252.904C152.337 252.301 152.549 251.723 152.927 251.297C153.306 250.87 153.818 250.631 154.353 250.631H154.459V255.178V255.178Z" fill="#3F3D56"/>
<path d="M60.7596 250.596C59.1813 250.619 57.6278 251.043 56.2148 251.836C54.8017 252.629 53.5655 253.772 52.5979 255.178H48.4502L52.4826 242.512L71.265 238.335L70.7344 255.178H68.9213C67.9537 253.771 66.7174 252.629 65.3044 251.836C63.8913 251.043 62.3379 250.619 60.7596 250.596V250.596Z" fill="#E2E2E2"/>
<path d="M60.5475 268.579C65.6462 268.579 69.7795 263.919 69.7795 258.169C69.7795 252.42 65.6462 247.759 60.5475 247.759C55.4487 247.759 51.3154 252.42 51.3154 258.169C51.3154 263.919 55.4487 268.579 60.5475 268.579Z" fill="#3F3D56"/>
<path d="M60.5474 263.648C63.231 263.648 65.4064 261.195 65.4064 258.169C65.4064 255.143 63.231 252.69 60.5474 252.69C57.8639 252.69 55.6885 255.143 55.6885 258.169C55.6885 261.195 57.8639 263.648 60.5474 263.648Z" fill="#E2E2E2"/>
<path d="M143.954 268.46C148.408 268.46 152.019 264.388 152.019 259.366C152.019 254.343 148.408 250.272 143.954 250.272C139.5 250.272 135.889 254.343 135.889 259.366C135.889 264.388 139.5 268.46 143.954 268.46Z" fill="#3F3D56"/>
<path d="M143.954 264.152C146.298 264.152 148.198 262.009 148.198 259.366C148.198 256.722 146.298 254.58 143.954 254.58C141.61 254.58 139.709 256.722 139.709 259.366C139.709 262.009 141.61 264.152 143.954 264.152Z" fill="#E2E2E2"/>
<path d="M90.4719 256.135H94.9287V219.879H90.4719V256.135Z" fill="#3F3D56"/>
<path d="M90.4718 251.708H154.565V249.554H90.4718V251.708Z" fill="#3F3D56"/>
<path d="M74.2361 238.187H76.3584V237.229H74.2361V238.187Z" fill="#3F3D56"/>
<path d="M168.042 233.801C168.022 233.776 168.007 233.746 167.997 233.714C167.988 233.682 167.985 233.648 167.988 233.615L170.915 202.404C170.92 202.346 170.945 202.291 170.984 202.252C171.023 202.212 171.073 202.19 171.125 202.19H171.126C171.178 202.19 171.228 202.212 171.267 202.251C171.306 202.29 171.331 202.344 171.337 202.402L174.503 233.548C174.506 233.581 174.503 233.615 174.494 233.647C174.485 233.679 174.47 233.708 174.451 233.733C174.431 233.759 174.407 233.779 174.38 233.793C174.353 233.807 174.323 233.814 174.294 233.814L168.201 233.879H168.199C168.169 233.879 168.14 233.872 168.113 233.859C168.086 233.845 168.062 233.825 168.042 233.801V233.801ZM171.135 204.614L168.435 233.398L174.054 233.338L171.135 204.614Z" fill="#3F3D56"/>
<path d="M52.5215 242.697L52.6207 242.739C53.1209 242.952 53.5254 243.381 53.7453 243.931C53.9652 244.48 53.9825 245.106 53.7933 245.67C53.6041 246.234 53.224 246.69 52.7366 246.938C52.2492 247.186 51.6944 247.205 51.1943 246.992L51.095 246.95L52.5215 242.697V242.697Z" fill="#3F3D56"/>
<path d="M170.164 208.034H172.287V173.094H170.164V208.034Z" fill="#3F3D56"/>
<path d="M92.9124 213.059C94.5534 213.059 95.8836 211.559 95.8836 209.709C95.8836 207.858 94.5534 206.358 92.9124 206.358C91.2714 206.358 89.9412 207.858 89.9412 209.709C89.9412 211.559 91.2714 213.059 92.9124 213.059Z" fill="#3F3D56"/>
<path d="M97.2391 249.59H158.365V246.669H97.2391V249.59Z" fill="#AC7FED"/>
<path d="M100.865 246.669H161.991V243.748H100.865V246.669Z" fill="#AC7FED"/>
<path d="M98.2752 244.333H159.401V241.412H98.2752V244.333Z" fill="#AC7FED"/>
<path d="M101.901 241.412H163.028V238.492H101.901V241.412Z" fill="#AC7FED"/>
<path d="M198.058 71.4034C200.006 71.4009 201.889 72.1921 203.36 73.6313C204.523 73.2732 205.742 73.2128 206.928 73.4545C207.91 71.8478 209.322 70.6372 210.957 69.9996C212.593 69.3621 214.366 69.3309 216.018 69.9108C217.671 70.4906 219.115 71.6511 220.141 73.2226C221.167 74.7941 221.72 76.6943 221.72 78.6456H190.122C190.51 76.5964 191.509 74.7593 192.953 73.4412C194.398 72.123 196.199 71.4037 198.058 71.4034V71.4034Z" fill="#E2E2E2"/>
<path d="M150.521 100.229C152.363 100.226 154.143 100.974 155.534 102.335C156.634 101.996 157.786 101.939 158.907 102.168C159.836 100.649 161.17 99.5042 162.717 98.9014C164.263 98.2987 165.939 98.2692 167.501 98.8174C169.064 99.3656 170.429 100.463 171.399 101.948C172.369 103.434 172.892 105.231 172.892 107.075H143.019C143.386 105.138 144.33 103.401 145.696 102.155C147.061 100.909 148.765 100.229 150.521 100.229V100.229Z" fill="#E2E2E2"/>
<path d="M102.994 52.6862C104.911 52.6837 106.763 53.462 108.211 54.8777C109.354 54.5255 110.553 54.4661 111.72 54.7038C112.686 53.1233 114.074 51.9325 115.683 51.3054C117.292 50.6782 119.036 50.6476 120.662 51.218C122.287 51.7884 123.708 52.9298 124.717 54.4756C125.726 56.0215 126.27 57.8906 126.27 59.81H95.189C95.5701 57.7943 96.5531 55.9872 97.9738 54.6906C99.3945 53.394 101.167 52.6865 102.994 52.6862V52.6862Z" fill="#E2E2E2"/>
<path d="M308.22 143.216V216.176H333.383V142.203L327.541 142.438V127.51H323.305L322.607 94.4468C324.316 93.1906 325.519 90.2072 325.519 86.7236C325.521 85.7235 325.418 84.7266 325.212 83.7539C326.021 82.7668 326.517 81.5049 326.622 80.1659C326.727 78.8269 326.435 77.4865 325.792 76.3545C326.33 76.8843 326.955 77.2884 327.633 77.5433C328.31 77.7982 329.025 77.8989 329.737 77.8395C330.449 77.7802 331.144 77.5619 331.78 77.1975C332.417 76.833 332.983 76.3296 333.446 75.7164C333.908 75.1033 334.258 74.3926 334.476 73.6256C334.693 72.8587 334.772 72.0508 334.71 71.2488C334.648 70.4467 334.446 69.6666 334.114 68.9536C333.783 68.2406 333.329 67.609 332.779 67.0955C333.703 66.7108 334.517 66.0477 335.13 65.1785C335.744 64.3092 336.135 63.2668 336.26 62.1647C336.386 61.0625 336.241 59.9427 335.842 58.9268C335.442 57.911 334.804 57.038 333.995 56.4026C333.187 55.7672 332.239 55.3938 331.256 55.3229C330.272 55.252 329.291 55.4864 328.417 56.0005C327.543 56.5146 326.811 57.2889 326.301 58.2391C325.79 59.1893 325.52 60.2792 325.519 61.3904C325.519 61.4795 325.522 61.5678 325.525 61.6558C324.785 61.4008 324.005 61.3284 323.237 61.4436C322.47 61.5588 321.734 61.8588 321.078 62.3232C320.423 62.7877 319.864 63.4058 319.439 64.1355C319.014 64.8652 318.733 65.6894 318.616 66.5522C317.944 66.1011 317.192 65.8204 316.414 65.7296C315.636 65.6388 314.849 65.7401 314.109 66.0264C313.369 66.3128 312.693 66.7773 312.128 67.3877C311.563 67.9982 311.123 68.74 310.838 69.5616C310.553 70.3832 310.429 71.2649 310.477 72.1456C310.524 73.0262 310.741 73.8847 311.112 74.6614C311.483 75.4381 312 76.1144 312.626 76.6434C313.252 77.1724 313.973 77.5413 314.738 77.7247C314.737 77.7688 314.735 77.8126 314.735 77.857C315.236 79.5611 315.874 81.2101 316.64 82.7838C316.265 84.0541 316.077 85.3849 316.084 86.7236C316.084 90.2071 317.287 93.1906 318.996 94.4467L318.298 127.51H314.062V142.981L308.22 143.216ZM323.933 73.55L323.947 73.5503C324.025 73.5503 324.102 73.5475 324.179 73.5438C324.227 73.7234 324.283 73.8994 324.345 74.0715C324.217 73.8889 324.079 73.7148 323.933 73.55V73.55Z" fill="#E2E2E2"/>
<path d="M294.366 268.109H370.752V168.465H294.366V268.109Z" fill="#3F3D56"/>
<path d="M322.262 268.109H342.856V247.842H322.262V268.109Z" fill="#E2E2E2"/>
<path d="M268.909 37.357C268.907 37.4306 268.904 37.5035 268.904 37.5775C268.902 38.9326 269.143 40.2741 269.611 41.5222C270.079 42.7703 270.765 43.8995 271.628 44.8424C271.763 45.1666 271.913 45.4825 272.078 45.7888C271.453 47.9059 271.14 50.124 271.15 52.3551C271.15 60.0502 274.671 66.2883 279.014 66.2883C283.356 66.2883 286.877 60.0502 286.877 52.3551C286.88 50.6882 286.708 49.0268 286.364 47.4056C287.713 45.7603 288.539 43.6572 288.714 41.4256C288.889 39.194 288.403 36.96 287.331 35.0734C288.227 35.9563 289.27 36.6296 290.399 37.0544C291.527 37.4792 292.72 37.647 293.906 37.548C295.093 37.449 296.251 37.0853 297.311 36.4778C298.372 35.8704 299.316 35.0314 300.087 34.0095C300.858 32.9876 301.441 31.8032 301.803 30.525C302.165 29.2468 302.298 27.9003 302.195 26.5637C302.092 25.227 301.754 23.9268 301.201 22.7385C300.649 21.5503 299.892 20.4976 298.976 19.6416C300.517 19.0004 301.872 17.8954 302.895 16.4466C303.918 14.9977 304.57 13.2605 304.779 11.4235C304.988 9.5866 304.746 7.72021 304.081 6.02713C303.415 4.33404 302.351 2.879 301.003 1.82006C299.656 0.761119 298.077 0.138781 296.438 0.020643C294.799 -0.0974952 293.162 0.293086 291.706 1.14996C290.25 2.00683 289.03 3.29723 288.179 4.88098C287.327 6.46472 286.877 8.28126 286.877 10.1333C286.877 10.2816 286.881 10.4288 286.887 10.5756C285.653 10.1506 284.352 10.0299 283.073 10.2219C281.794 10.4138 280.567 10.9138 279.475 11.6879C278.382 12.462 277.451 13.4921 276.743 14.7083C276.034 15.9245 275.567 17.2982 275.371 18.7362C274.251 17.9843 272.998 17.5164 271.701 17.3651C270.404 17.2138 269.093 17.3826 267.86 17.8598C266.626 18.337 265.499 19.1112 264.558 20.1287C263.616 21.1461 262.883 22.3824 262.407 23.7518C261.932 25.1211 261.727 26.5907 261.806 28.0584C261.885 29.5262 262.246 30.957 262.865 32.2515C263.483 33.546 264.344 34.6732 265.388 35.5548C266.432 36.4365 267.633 37.0514 268.909 37.357V37.357ZM284.256 30.3997C284.385 30.3997 284.514 30.3949 284.642 30.3887C284.723 30.6882 284.816 30.9814 284.92 31.2684C284.706 30.964 284.476 30.6738 284.233 30.3991L284.256 30.3997Z" fill="#E2E2E2"/>
<path d="M274.519 135.532H283.507L283.186 120.333V120.328L282.01 64.5972C281.107 65.2189 280.07 65.5479 279.013 65.5479C277.955 65.5479 276.919 65.2189 276.016 64.5972L274.84 120.328V120.333L274.519 135.532Z" fill="#AC7FED"/>
<path d="M258.046 146.508V268.109H299.98V144.82L290.246 145.211V120.333H267.779V146.116L258.046 146.508Z" fill="#AC7FED"/>
<path d="M375.999 37.357C375.998 37.4306 375.994 37.5035 375.994 37.5775C375.993 38.9326 376.233 40.2741 376.702 41.5222C377.17 42.7703 377.856 43.8995 378.719 44.8424C378.854 45.1666 379.004 45.4825 379.168 45.7888C378.543 47.9059 378.23 50.124 378.241 52.3551C378.241 60.0502 381.761 66.2883 386.104 66.2883C390.447 66.2883 393.967 60.0502 393.967 52.3551C393.97 50.6882 393.798 49.0268 393.455 47.4056C394.803 45.7603 395.63 43.6572 395.805 41.4256C395.98 39.194 395.493 36.96 394.422 35.0734C395.318 35.9563 396.36 36.6297 397.489 37.0545C398.618 37.4793 399.81 37.6471 400.997 37.5481C402.183 37.4491 403.341 37.0854 404.402 36.4779C405.463 35.8705 406.406 35.0315 407.177 34.0096C407.948 32.9877 408.532 31.8032 408.894 30.5251C409.256 29.2469 409.389 27.9004 409.285 26.5637C409.182 25.227 408.844 23.9268 408.292 22.7385C407.739 21.5503 406.983 20.4976 406.066 19.6416C407.607 19.0004 408.963 17.8954 409.986 16.4466C411.009 14.9977 411.66 13.2605 411.869 11.4235C412.078 9.58661 411.837 7.72022 411.171 6.02713C410.505 4.33404 409.441 2.879 408.094 1.82006C406.746 0.761118 405.167 0.138782 403.528 0.0206431C401.889 -0.0974954 400.252 0.293086 398.796 1.14996C397.34 2.00683 396.12 3.29723 395.269 4.88098C394.418 6.46472 393.967 8.28126 393.967 10.1333C393.967 10.2816 393.972 10.4288 393.977 10.5756C392.743 10.1506 391.443 10.0299 390.164 10.2219C388.885 10.4138 387.657 10.9138 386.565 11.6879C385.473 12.462 384.541 13.4921 383.833 14.7083C383.125 15.9245 382.657 17.2982 382.462 18.7362C381.341 17.9843 380.088 17.5164 378.791 17.3651C377.494 17.2138 376.183 17.3826 374.95 17.8598C373.716 18.337 372.59 19.1112 371.648 20.1287C370.707 21.1461 369.973 22.3824 369.498 23.7518C369.022 25.1211 368.817 26.5907 368.896 28.0584C368.975 29.5262 369.336 30.957 369.955 32.2515C370.574 33.546 371.435 34.6732 372.478 35.5548C373.522 36.4365 374.723 37.0514 375.999 37.357V37.357ZM391.346 30.3997C391.476 30.3997 391.604 30.3948 391.733 30.3887C391.813 30.6882 391.906 30.9814 392.01 31.2684C391.796 30.964 391.567 30.6738 391.323 30.3991L391.346 30.3997Z" fill="#E2E2E2"/>
<path d="M381.611 135.532H390.597L389.099 64.5996C387.163 65.3842 385.045 65.3842 383.108 64.5996L381.611 135.532Z" fill="#AC7FED"/>
<path d="M365.136 146.508V268.109H407.074V144.82L403.63 144.96L397.336 145.211V120.333H374.869V146.116L365.136 146.508Z" fill="#AC7FED"/>
<path d="M343.955 192.174H354.315V180.492H343.955V192.174Z" fill="white"/>
<path d="M327.379 192.174H337.739V180.492H327.379V192.174Z" fill="white"/>
<path d="M310.802 192.174H321.162V180.492H310.802V192.174Z" fill="white"/>
<path d="M343.955 210.866H354.315V199.183H343.955V210.866Z" fill="white"/>
<path d="M327.379 210.866H337.739V199.183H327.379V210.866Z" fill="white"/>
<path d="M310.802 210.866H321.162V199.183H310.802V210.866Z" fill="white"/>
<path d="M343.955 229.557H354.315V217.875H343.955V229.557Z" fill="white"/>
<path d="M327.379 229.557H337.739V217.875H327.379V229.557Z" fill="white"/>
<path d="M310.802 229.557H321.162V217.875H310.802V229.557Z" fill="white"/>
<path d="M273.833 187.501H284.194V175.819H273.833V187.501Z" fill="white"/>
<path d="M273.833 206.193H284.194V194.511H273.833V206.193Z" fill="white"/>
<path d="M273.833 224.884H284.194V213.202H273.833V224.884Z" fill="white"/>
<path d="M273.833 243.576H284.194V231.894H273.833V243.576Z" fill="white"/>
<path d="M380.837 187.501H391.198V175.819H380.837V187.501Z" fill="white"/>
<path d="M380.837 206.193H391.198V194.511H380.837V206.193Z" fill="white"/>
<path d="M380.837 224.884H391.198V213.202H380.837V224.884Z" fill="white"/>
<path d="M380.837 243.576H391.198V231.894H380.837V243.576Z" fill="white"/>
<path d="M460 267.697H0V268.865H460V267.697Z" fill="#3F3D56"/>
</svg>
