<svg width="25" height="25" viewBox="0 0 25 25" fill="none" xmlns="http://www.w3.org/2000/svg">
<g clip-path="url(#clip0_311_14)">
<path fill-rule="evenodd" clip-rule="evenodd" d="M12.4995 0.288086C5.59576 0.288086 -0.000488281 5.89308 -0.000488281 12.8094C-0.000488281 18.3406 3.58076 23.0344 8.54826 24.6894C9.17326 24.8044 9.40076 24.4181 9.40076 24.0856C9.40076 23.7894 9.39076 23.0006 9.38451 21.9569C5.90701 22.7131 5.17326 20.2781 5.17326 20.2781C4.60576 18.8306 3.78576 18.4456 3.78576 18.4456C2.65076 17.6706 3.87201 17.6856 3.87201 17.6856C5.12576 17.7731 5.78576 18.9756 5.78576 18.9756C6.90076 20.8881 8.71201 20.3356 9.42326 20.0156C9.53826 19.2069 9.86076 18.6556 10.2183 18.3431C7.44326 18.0269 4.52451 16.9519 4.52451 12.1543C4.52451 10.7881 5.01201 9.66933 5.81076 8.79433C5.68201 8.47808 5.25326 7.20433 5.93326 5.48183C5.93326 5.48183 6.98326 5.14433 9.37076 6.76433C10.3905 6.48623 11.4426 6.34458 12.4995 6.34308C13.562 6.34808 14.6307 6.48683 15.6295 6.76433C18.0157 5.14433 19.0632 5.48058 19.0632 5.48058C19.7457 7.20433 19.3157 8.47808 19.1882 8.79433C19.9882 9.66933 20.4732 10.7881 20.4732 12.1543C20.4732 16.9644 17.5495 18.0231 14.7657 18.3331C15.2145 18.7194 15.6132 19.4831 15.6132 20.6519C15.6132 22.3244 15.5982 23.6756 15.5982 24.0856C15.5982 24.4206 15.8232 24.8106 16.4582 24.6881C18.9474 23.8532 21.1111 22.2572 22.6439 20.1256C24.1765 17.9941 25.0006 15.4347 24.9995 12.8094C24.9995 5.89308 19.402 0.288086 12.4995 0.288086Z" fill="white"/>
</g>
<defs>
<clipPath id="clip0_311_14">
<rect width="25" height="25" fill="white"/>
</clipPath>
</defs>
</svg>
