<svg width="25" height="25" viewBox="0 0 25 25" fill="none" xmlns="http://www.w3.org/2000/svg">
<path d="M23.0052 3.84876L25 1.66781V1.19043H18.0895L13.1646 15.2L7.56145 1.19043H0.315625V1.66781L2.64583 4.87376C2.87292 5.11067 2.99167 5.4571 2.96145 5.8059V18.4047C3.03333 18.8583 2.90417 19.3249 2.625 19.6547L0 23.2904V23.7619H7.4427V23.2845L4.8177 19.6547C4.53333 19.3238 4.39895 18.8654 4.45625 18.4047V7.5071L10.9896 23.7677H11.749L17.3667 7.5071V20.4606C17.3667 20.8024 17.3667 20.8726 17.1708 21.0963L15.15 23.331V23.8095H24.9542V23.332L23.0062 21.1524C22.8355 21.0047 22.7469 20.757 22.7833 20.5167V4.48448C22.7469 4.24282 22.8344 3.99519 23.0052 3.84876Z" fill="white"/>
</svg>
