<svg width="20" height="25" viewBox="0 0 20 25" fill="none" xmlns="http://www.w3.org/2000/svg">
<g clip-path="url(#clip0_311_22)">
<path fill-rule="evenodd" clip-rule="evenodd" d="M19.1499 23.7283C19.4853 23.9658 19.9176 24.0252 20.3031 23.8793C20.6885 23.7324 20.9718 23.4033 21.0572 23.0043C21.9624 18.7502 24.1583 7.98245 24.9822 4.11265C25.0447 3.82099 24.9406 3.51786 24.7114 3.32307C24.4822 3.12828 24.1645 3.07203 23.8812 3.17724C19.5135 4.7939 6.06243 9.84078 0.564509 11.8752C0.215551 12.0043 -0.0115322 12.3397 -7.38503e-05 12.7074C0.0124261 13.0762 0.260343 13.396 0.617634 13.5033C3.08326 14.2408 6.31972 15.2668 6.31972 15.2668C6.31972 15.2668 7.83222 19.8345 8.62076 22.1574C8.71972 22.4491 8.94784 22.6783 9.24888 22.7574C9.54888 22.8356 9.86972 22.7533 10.0937 22.5418C11.3603 21.346 13.3187 19.497 13.3187 19.497C13.3187 19.497 17.0395 22.2252 19.1499 23.7283V23.7283ZM7.68118 14.6897L9.43013 20.4585L9.81868 16.8054C9.81868 16.8054 16.576 10.7106 20.4281 7.23661C20.5406 7.13453 20.5562 6.9637 20.4624 6.8439C20.3697 6.72411 20.1989 6.69599 20.0708 6.77724C15.6062 9.62828 7.68118 14.6897 7.68118 14.6897Z" fill="white"/>
</g>
<defs>
<clipPath id="clip0_311_22">
<rect width="25" height="25" fill="white"/>
</clipPath>
</defs>
</svg>
