<svg width="25" height="25" viewBox="0 0 25 25" fill="none" xmlns="http://www.w3.org/2000/svg">
<path d="M7.8625 23.9599C17.2962 23.9599 22.4563 15.2752 22.4563 7.74463C22.4563 7.49741 22.4562 7.25158 22.4412 7.00852C23.4452 6.20092 24.3116 5.20104 25 4.05574C24.0639 4.51685 23.0707 4.8193 22.0537 4.95297C23.1245 4.24055 23.926 3.12012 24.3088 1.80019C23.3021 2.46391 22.2009 2.93176 21.0525 3.18352C20.2792 2.2693 19.2563 1.66384 18.142 1.46088C17.0278 1.25793 15.8844 1.4688 14.8889 2.06084C13.8934 2.65288 13.1014 3.59306 12.6354 4.73583C12.1694 5.87858 12.0555 7.16016 12.3112 8.38213C10.272 8.26858 8.277 7.6798 6.45581 6.65404C4.63461 5.62826 3.02791 4.18841 1.74 2.42797C1.08415 3.68241 0.883236 5.16744 1.17817 6.58069C1.4731 7.99395 2.24171 9.22919 3.3275 10.0349C2.51157 10.0087 1.71329 9.76477 1 9.3238V9.39602C1.00049 10.7117 1.4105 11.9867 2.1605 13.0048C2.9105 14.0229 3.95434 14.7215 5.115 14.9821C4.35976 15.2109 3.56736 15.2442 2.79875 15.0793C3.12645 16.212 3.7646 17.2024 4.62391 17.9121C5.48323 18.6218 6.52071 19.0154 7.59125 19.0377C6.52765 19.9663 5.30974 20.6528 4.00716 21.0579C2.70459 21.4631 1.3429 21.5789 0 21.3988C2.34575 23.0715 5.07524 23.9586 7.8625 23.9543" fill="white"/>
</svg>
